<svg width="78" height="66" viewBox="0 0 78 66" fill="none" xmlns="http://www.w3.org/2000/svg">
<g id="SVG">
<path id="Vector" fill-rule="evenodd" clip-rule="evenodd" d="M33.8941 55.7283C33.6712 55.7283 33.3581 55.5943 33.1341 55.4153L19.3201 41.6003C18.2031 40.4833 17.5771 38.9633 17.5771 37.4433C17.5771 35.8783 18.2031 34.4033 19.3201 33.2853C21.6001 31.0503 25.3101 31.0503 27.5461 33.2853L32.7761 38.4713V15.4943C32.7761 12.2753 35.3691 9.59326 38.6771 9.59326C41.8971 9.59326 44.5781 12.2303 44.5781 15.4933V31.6333H53.5641C59.3311 31.6333 64.0241 36.3263 64.0241 42.0933V54.6103C64.0241 55.2363 63.4882 55.7283 62.9072 55.7283C62.76 55.7296 62.6141 55.7016 62.4779 55.6459C62.3417 55.5901 62.218 55.5078 62.114 55.4037C62.01 55.2996 61.9278 55.1758 61.8722 55.0396C61.8166 54.9034 61.7887 54.7574 61.7901 54.6103V42.0933C61.7901 37.5333 58.0341 33.8233 53.5201 33.8233H43.4601C43.313 33.8246 43.1671 33.7966 43.0309 33.7409C42.8947 33.6851 42.771 33.6028 42.667 33.4987C42.563 33.3946 42.4808 33.2708 42.4252 33.1346C42.3696 32.9984 42.3417 32.8524 42.3431 32.7053V15.4943C42.3431 13.4823 40.6441 11.7843 38.6331 11.7843C36.5761 11.7843 34.8781 13.4823 34.8781 15.4943V41.0643C34.8781 41.5123 34.6542 41.9143 34.2071 42.0933C33.7601 42.2723 33.3571 42.1383 33.0451 41.8253L26.0711 34.8063C24.6411 33.3763 22.2711 33.3763 20.8411 34.8063C20.1701 35.5213 19.8121 36.4163 19.8121 37.4443C19.8121 38.4273 20.1701 39.3663 20.9301 40.0373L34.6541 53.8953C35.0561 54.2973 35.0561 55.0123 34.6541 55.4153C34.4472 55.6083 34.1771 55.7195 33.8941 55.7283Z" fill="#347928"/>
<path id="Vector_2" fill-rule="evenodd" clip-rule="evenodd" d="M62.818 65.1602H33.894C33.7469 65.1615 33.6011 65.1335 33.465 65.0779C33.3288 65.0222 33.2052 64.94 33.1012 64.836C32.9972 64.732 32.915 64.6083 32.8593 64.4722C32.8036 64.3361 32.7757 64.1902 32.777 64.0432V54.6102C32.777 53.9842 33.268 53.4922 33.894 53.4922H62.818C63.444 53.4922 63.935 53.9842 63.935 54.6102V64.0422C63.935 64.6682 63.444 65.1602 62.818 65.1602ZM34.967 63.0142H61.7V55.7282H34.967V63.0142ZM43.46 19.9202C43.103 19.9202 42.7 19.7402 42.522 19.3382C42.209 18.8462 42.388 18.1762 42.88 17.8632C45.383 16.3882 47.037 14.6442 47.037 10.6662C47.037 6.86616 43.327 2.35116 38.677 2.35116C37.5847 2.34931 36.5027 2.5631 35.4932 2.98027C34.4837 3.39743 33.5664 4.00976 32.794 4.78216C32.0216 5.55455 31.4093 6.47181 30.9921 7.48135C30.5749 8.49088 30.3612 9.57283 30.363 10.6652C30.3632 11.9334 30.6532 13.1848 31.2109 14.3238C31.7686 15.4628 32.5793 16.4593 33.581 17.2372C33.894 17.5052 34.207 17.6842 34.52 17.8632C35.012 18.1762 35.19 18.8462 34.878 19.3382C34.565 19.8752 33.894 20.0532 33.402 19.7402C33.045 19.4722 32.598 19.2492 32.24 18.9362C29.692 16.9242 28.261 13.8842 28.261 10.6662C28.261 4.89816 32.955 0.160156 38.722 0.160156C44.712 0.160156 49.272 5.83716 49.272 10.6652C49.272 15.9412 46.635 18.2212 44.087 19.7402C43.818 19.8752 43.639 19.9202 43.46 19.9202ZM11.05 21.2162C5.24 21.2162 0.5 16.5222 0.5 10.7102C0.5 4.94316 5.239 0.250156 11.05 0.250156C16.817 0.250156 21.556 4.94316 21.556 10.7102C21.556 16.5222 16.817 21.2162 11.05 21.2162ZM11.05 2.35016C6.401 2.35016 2.69 6.06016 2.69 10.7102C2.69 15.4042 6.446 19.0702 11.05 19.0702C15.655 19.0702 19.365 15.3152 19.365 10.7102C19.365 6.15016 15.655 2.35016 11.05 2.35016ZM66.305 21.2162C60.538 21.2162 55.799 16.5222 55.799 10.7102C55.8 4.94316 60.538 0.250156 66.305 0.250156C72.07 0.250156 76.81 4.94216 76.81 10.7102C76.81 16.5222 72.161 21.2162 66.305 21.2162ZM66.305 2.35016C65.2125 2.34818 64.1304 2.56191 63.1207 2.97907C62.1109 3.39624 61.1935 4.00864 60.421 4.78116C59.6485 5.55367 59.0361 6.47109 58.6189 7.48081C58.2017 8.49052 57.988 9.57266 57.99 10.6652C57.988 11.7577 58.2017 12.8398 58.6189 13.8495C59.0361 14.8592 59.6485 15.7766 60.421 16.5492C61.1935 17.3217 62.1109 17.9341 63.1207 18.3512C64.1304 18.7684 65.2125 18.9821 66.305 18.9802C67.3975 18.9821 68.4796 18.7684 69.4893 18.3512C70.4991 17.9341 71.4165 17.3217 72.189 16.5492C72.9615 15.7766 73.5739 14.8592 73.9911 13.8495C74.4082 12.8398 74.622 11.7577 74.62 10.6652C74.6258 9.57158 74.4147 8.48771 73.9989 7.47625C73.5831 6.4648 72.9709 5.54584 72.1976 4.77256C71.4243 3.99927 70.5054 3.38702 69.4939 2.97122C68.4824 2.55541 67.3986 2.34432 66.305 2.35016Z" fill="#347928"/>
<path id="Vector_3" fill-rule="evenodd" clip-rule="evenodd" d="M9.43963 14.8683C9.12763 14.8683 8.85963 14.7783 8.67963 14.5993L5.72963 11.6043C5.62374 11.5034 5.53944 11.3821 5.48183 11.2476C5.42423 11.1132 5.39453 10.9685 5.39453 10.8223C5.39453 10.676 5.42423 10.5313 5.48183 10.3969C5.53944 10.2624 5.62374 10.1411 5.72963 10.0403C5.82605 9.93462 5.94344 9.85024 6.0743 9.79251C6.20515 9.73478 6.34661 9.70497 6.48963 9.70497C6.63266 9.70497 6.77411 9.73478 6.90497 9.79251C7.03582 9.85024 7.15321 9.93462 7.24963 10.0403L9.43963 12.2753L14.7596 6.86525C14.9739 6.67096 15.2529 6.56334 15.5421 6.56334C15.8314 6.56334 16.1103 6.67096 16.3246 6.86525C16.4307 6.96613 16.5151 7.08752 16.5728 7.22203C16.6305 7.35655 16.6603 7.50139 16.6603 7.64775C16.6603 7.79412 16.6305 7.93896 16.5728 8.07347C16.5151 8.20799 16.4307 8.32937 16.3246 8.43025L10.2006 14.6003C9.98894 14.7801 9.71832 14.8755 9.44063 14.8683H9.43963ZM70.9096 16.2983C70.6406 16.2983 70.3276 16.2093 70.1496 15.9853L61.0296 6.95525C60.9237 6.85438 60.8394 6.73306 60.7818 6.59864C60.7242 6.46422 60.6945 6.3195 60.6945 6.17325C60.6945 6.02701 60.7242 5.88229 60.7818 5.74787C60.8394 5.61344 60.9237 5.49212 61.0296 5.39125C61.1305 5.28536 61.2518 5.20106 61.3862 5.14346C61.5207 5.08585 61.6654 5.05615 61.8116 5.05615C61.9579 5.05615 62.1026 5.08585 62.237 5.14346C62.3714 5.20106 62.4928 5.28536 62.5936 5.39125L71.7136 14.4663C71.8193 14.5627 71.9036 14.6801 71.9614 14.8109C72.0191 14.9418 72.0489 15.0832 72.0489 15.2263C72.0489 15.3693 72.0191 15.5107 71.9614 15.6416C71.9036 15.7724 71.8193 15.8898 71.7136 15.9863C71.4881 16.1779 71.2044 16.2878 70.9086 16.2983H70.9096Z" fill="#347928"/>
<path id="Vector_4" fill-rule="evenodd" clip-rule="evenodd" d="M61.7901 16.2983C61.5211 16.2983 61.2081 16.2093 61.0301 15.9853C60.9246 15.8887 60.8404 15.7713 60.7827 15.6405C60.7251 15.5096 60.6953 15.3682 60.6953 15.2253C60.6953 15.0823 60.7251 14.9409 60.7827 14.81C60.8404 14.6792 60.9246 14.5618 61.0301 14.4653L70.1501 5.39125C70.251 5.28536 70.3723 5.20106 70.5067 5.14346C70.6412 5.08585 70.7859 5.05615 70.9321 5.05615C71.0784 5.05615 71.2231 5.08585 71.3575 5.14346C71.4919 5.20106 71.6132 5.28536 71.7141 5.39125C71.82 5.49212 71.9043 5.61344 71.9619 5.74787C72.0195 5.88229 72.0492 6.02701 72.0492 6.17325C72.0492 6.3195 72.0195 6.46422 71.9619 6.59864C71.9043 6.73306 71.82 6.85438 71.7141 6.95525L62.5041 15.9853C62.3261 16.2093 62.0141 16.2983 61.7901 16.2983Z" fill="#347928"/>
</g>
</svg>
