<svg width="76" height="66" viewBox="0 0 76 66" fill="none" xmlns="http://www.w3.org/2000/svg">
<g id="SVG">
<path id="Vector" fill-rule="evenodd" clip-rule="evenodd" d="M37.5965 65.1602C30.2435 65.1602 23.1845 62.6602 17.4485 58.1012C11.8605 53.6892 7.89051 47.5132 6.12551 40.6012C5.97851 40.0132 6.41951 39.4252 6.86051 39.2782C7.44951 39.1312 8.03751 39.5722 8.18451 40.0132C11.5665 53.6892 23.6255 63.1002 37.5965 63.1002C51.5665 63.1002 63.6255 53.6882 67.0075 40.0122C67.1545 39.4242 67.7435 39.1302 68.3315 39.2772C68.7725 39.4242 69.2135 40.0122 69.0665 40.6002C67.3025 47.5122 63.3315 53.6882 57.7435 58.1002C51.8595 62.6602 44.9495 65.1602 37.5965 65.1602ZM68.0365 26.0422C67.5965 26.0422 67.1545 25.7482 67.0075 25.3072C63.6255 11.6312 51.5675 2.22016 37.5965 2.22016C23.6255 2.22016 11.5665 11.6322 8.18451 25.3082C8.03751 25.7492 7.44951 26.1902 6.86051 26.0432C6.42051 25.8962 5.97851 25.3082 6.12551 24.7202C7.89051 17.8082 11.8605 11.6322 17.4485 7.22016C23.1855 2.51316 30.2445 0.160156 37.5965 0.160156C44.9485 0.160156 51.8595 2.51316 57.7435 7.21916C63.3315 11.6312 67.3015 17.8072 69.0665 24.7192C69.2135 25.3072 68.7725 25.8952 68.3315 26.0422H68.0365Z" fill="#347928"/>
<path id="Vector_2" fill-rule="evenodd" clip-rule="evenodd" d="M13.1846 41.3374H0.978558C0.537557 41.3374 0.243558 41.0434 0.0965576 40.7494C-0.0504424 40.4544 -0.0504424 40.0134 0.243558 39.7194L6.41956 31.7784C6.48847 31.6434 6.5939 31.5305 6.72385 31.4525C6.8538 31.3746 7.00304 31.3347 7.15456 31.3374C7.44956 31.3374 7.74356 31.4844 8.03756 31.7774L14.0676 39.7194C14.2136 40.0134 14.2136 40.4544 14.0676 40.7494C13.9196 41.0434 13.6256 41.3374 13.1846 41.3374ZM3.03756 39.2774H11.1256L7.15556 33.9844L3.03756 39.2774ZM68.0376 33.9844C67.7436 33.9844 67.4496 33.8374 67.1546 33.5434L61.1256 25.6014C60.9786 25.3074 60.8316 24.8664 61.1256 24.5724C61.2726 24.1314 61.5666 23.9844 62.0076 23.9844H74.2136C74.6546 23.9844 74.9496 24.2784 75.0966 24.5724C75.2436 24.8664 75.2436 25.3074 74.9496 25.6024L68.7726 33.5424C68.7038 33.6775 68.5984 33.7906 68.4685 33.8688C68.3385 33.9469 68.1892 33.987 68.0376 33.9844ZM64.0676 26.0434L68.0376 31.3374L72.1546 26.0434H64.0676Z" fill="#347928"/>
<path id="Vector_3" d="M29.2002 19.3354L29.0572 19.1924C28.7022 18.8374 28.5592 18.6944 28.5592 18.4104C28.5592 18.0544 28.7022 17.9834 29.0572 17.6274L29.5552 17.1294C29.7692 16.8444 29.7692 16.4894 29.4852 16.2754C29.2002 16.0624 28.8442 16.0624 28.6312 16.3464L28.2042 16.7734C27.7772 17.2004 27.3502 17.6274 27.3502 18.4814C27.3502 19.3354 27.7772 19.7614 28.2042 20.1894L28.3462 20.3314C28.7732 20.6874 29.0572 20.9714 29.0572 21.6114C29.0572 22.3234 28.7022 22.7514 28.2752 23.1774L28.1322 23.3194C27.9192 23.6044 27.9192 23.9594 28.2042 24.1734C28.3462 24.2444 28.4882 24.3154 28.6312 24.3154C28.8175 24.3071 28.9945 24.2314 29.1292 24.1024L29.2712 23.9604C29.7692 23.4624 30.4092 22.7504 30.4092 21.5404C30.3392 20.3304 29.6982 19.7624 29.1992 19.3354H29.2002ZM37.8802 16.5604L37.7382 16.4184C37.3822 16.0624 37.2402 15.9204 37.2402 15.6354C37.2402 15.2794 37.3822 15.2084 37.7382 14.8524L38.2362 14.3544C38.4492 14.0704 38.4492 13.7144 38.1652 13.5004C37.8802 13.2874 37.5252 13.2874 37.3112 13.5724L36.8842 13.9984C36.4572 14.4254 36.0302 14.8524 36.0302 15.7064C36.0302 16.5604 36.4572 16.9864 36.8842 17.4144L37.0262 17.5564C37.4532 17.9124 37.7382 18.1964 37.7382 18.8364C37.7382 19.5484 37.3822 19.9764 36.9552 20.4024L36.8132 20.5444C36.5992 20.8294 36.5992 21.1844 36.8842 21.3984C37.0262 21.4694 37.1692 21.5414 37.3112 21.5414C37.4976 21.5328 37.6746 21.4568 37.8092 21.3274L37.9512 21.1854C38.4492 20.6874 39.0902 19.9754 39.0902 18.7654C39.0192 17.5564 38.3782 16.9874 37.8802 16.5604ZM46.6322 19.3354L46.4902 19.1924C46.1342 18.8374 45.9922 18.6944 45.9922 18.4104C45.9922 18.0544 46.1342 17.9834 46.4902 17.6274L46.9882 17.1294C47.2012 16.8444 47.2012 16.4894 46.9162 16.2754C46.6322 16.0624 46.2762 16.0624 46.0632 16.3464L45.6362 16.7734C45.2092 17.2004 44.7822 17.6274 44.7822 18.4814C44.7822 19.3354 45.2092 19.7614 45.6362 20.1894L45.7782 20.3314C46.2052 20.6874 46.4902 20.9714 46.4902 21.6114C46.4902 22.3234 46.1342 22.7514 45.7072 23.1774L45.5652 23.3194C45.3512 23.6044 45.3512 23.9594 45.6352 24.1734C45.7782 24.2444 45.9202 24.3154 46.0632 24.3154C46.2495 24.3071 46.4265 24.2314 46.5612 24.1024L46.7032 23.9604C47.2012 23.4624 47.8422 22.7504 47.8422 21.5404C47.6992 20.3304 47.0592 19.7624 46.6322 19.3354ZM57.8742 45.2344H17.1752C17.091 45.2341 17.0077 45.2505 16.9299 45.2825C16.8522 45.3146 16.7815 45.3617 16.722 45.4212C16.6625 45.4807 16.6154 45.5514 16.5833 45.6291C16.5513 45.7069 16.5349 45.7902 16.5352 45.8744V47.3694C16.5399 48.1604 16.8562 48.9176 17.4155 49.477C17.9749 50.0363 18.7322 50.3526 19.5232 50.3574H55.5262C56.3172 50.3526 57.0744 50.0363 57.6338 49.477C58.1931 48.9176 58.5094 48.1604 58.5142 47.3694V45.8754C58.5144 45.7912 58.4981 45.7079 58.466 45.6301C58.4339 45.5524 58.3868 45.4817 58.3273 45.4222C58.2678 45.3627 58.1972 45.3156 58.1194 45.2835C58.0416 45.2515 57.9583 45.2341 57.8742 45.2344ZM57.2342 47.3694C57.2342 48.3654 56.4512 49.1474 55.4542 49.1474H19.5242C19.29 49.1498 19.0576 49.1054 18.8408 49.0169C18.6239 48.9284 18.4269 48.7976 18.2612 48.632C18.0955 48.4664 17.9646 48.2695 17.876 48.0527C17.7874 47.8359 17.7429 47.6036 17.7452 47.3694V46.5154H57.2352L57.2342 47.3694ZM48.8382 31.8584C46.3482 29.4384 43.1452 27.9444 39.8012 27.4464L41.0112 26.2364C41.3672 25.8814 41.5092 25.3124 41.2952 24.8144C41.0822 24.3164 40.6552 24.0314 40.0852 24.0314H34.9632C34.4652 24.0314 33.9672 24.3164 33.7532 24.8144C33.5402 25.3124 33.6832 25.8104 34.0382 26.2374L35.2482 27.4474C31.828 27.9362 28.6447 29.4775 26.1402 31.8574C23.0908 34.7626 21.3027 38.748 21.1602 42.9574C21.1602 43.3134 21.4442 43.5974 21.7292 43.5974C22.0842 43.5974 22.3692 43.3134 22.3692 43.0284C22.501 39.1374 24.163 35.4557 26.9942 32.7834C29.6272 30.2214 33.0422 28.7984 36.5992 28.5854H38.3072C41.9362 28.7984 45.2802 30.2214 47.9132 32.7834C50.7443 35.4557 52.4064 39.1374 52.5382 43.0284C52.5382 43.3844 52.8222 43.6684 53.1782 43.5984C53.5342 43.5984 53.8182 43.3134 53.7482 42.9584C53.6762 38.6884 51.8982 34.7754 48.8382 31.8584ZM38.1652 27.3044H36.8852L34.9632 25.3834H40.0862L38.1652 27.3044Z" fill="#347928"/>
<path id="Vector_4" d="M29.2002 19.3354L29.0572 19.1924C28.7022 18.8374 28.5592 18.6944 28.5592 18.4104C28.5592 18.0544 28.7022 17.9834 29.0572 17.6274L29.5552 17.1294C29.7692 16.8444 29.7692 16.4894 29.4852 16.2754C29.2002 16.0624 28.8442 16.0624 28.6312 16.3464L28.2042 16.7734C27.7772 17.2004 27.3502 17.6274 27.3502 18.4814C27.3502 19.3354 27.7772 19.7614 28.2042 20.1894L28.3462 20.3314C28.7732 20.6874 29.0572 20.9714 29.0572 21.6114C29.0572 22.3234 28.7022 22.7514 28.2752 23.1774L28.1322 23.3194C27.9192 23.6044 27.9192 23.9594 28.2042 24.1734C28.3462 24.2444 28.4882 24.3154 28.6312 24.3154C28.8175 24.3071 28.9945 24.2314 29.1292 24.1024L29.2712 23.9604C29.7692 23.4624 30.4092 22.7504 30.4092 21.5404C30.3392 20.3304 29.6982 19.7624 29.1992 19.3354H29.2002ZM37.8802 16.5604L37.7382 16.4184C37.3822 16.0624 37.2402 15.9204 37.2402 15.6354C37.2402 15.2794 37.3822 15.2084 37.7382 14.8524L38.2362 14.3544C38.4492 14.0704 38.4492 13.7144 38.1652 13.5004C37.8802 13.2874 37.5252 13.2874 37.3112 13.5724L36.8842 13.9984C36.4572 14.4254 36.0302 14.8524 36.0302 15.7064C36.0302 16.5604 36.4572 16.9864 36.8842 17.4144L37.0262 17.5564C37.4532 17.9124 37.7382 18.1964 37.7382 18.8364C37.7382 19.5484 37.3822 19.9764 36.9552 20.4024L36.8132 20.5444C36.5992 20.8294 36.5992 21.1844 36.8842 21.3984C37.0262 21.4694 37.1692 21.5414 37.3112 21.5414C37.4976 21.5328 37.6746 21.4568 37.8092 21.3274L37.9512 21.1854C38.4492 20.6874 39.0902 19.9754 39.0902 18.7654C39.0192 17.5564 38.3782 16.9874 37.8802 16.5604ZM46.6322 19.3354L46.4902 19.1924C46.1342 18.8374 45.9922 18.6944 45.9922 18.4104C45.9922 18.0544 46.1342 17.9834 46.4902 17.6274L46.9882 17.1294C47.2012 16.8444 47.2012 16.4894 46.9162 16.2754C46.6322 16.0624 46.2762 16.0624 46.0632 16.3464L45.6362 16.7734C45.2092 17.2004 44.7822 17.6274 44.7822 18.4814C44.7822 19.3354 45.2092 19.7614 45.6362 20.1894L45.7782 20.3314C46.2052 20.6874 46.4902 20.9714 46.4902 21.6114C46.4902 22.3234 46.1342 22.7514 45.7072 23.1774L45.5652 23.3194C45.3512 23.6044 45.3512 23.9594 45.6352 24.1734C45.7782 24.2444 45.9202 24.3154 46.0632 24.3154C46.2495 24.3071 46.4265 24.2314 46.5612 24.1024L46.7032 23.9604C47.2012 23.4624 47.8422 22.7504 47.8422 21.5404C47.6992 20.3304 47.0592 19.7624 46.6322 19.3354ZM57.8742 45.2344H17.1752C17.091 45.2341 17.0077 45.2505 16.9299 45.2825C16.8522 45.3146 16.7815 45.3617 16.722 45.4212C16.6625 45.4807 16.6154 45.5514 16.5833 45.6291C16.5513 45.7069 16.5349 45.7902 16.5352 45.8744V47.3694C16.5399 48.1604 16.8562 48.9176 17.4155 49.477C17.9749 50.0363 18.7322 50.3526 19.5232 50.3574H55.5262C56.3172 50.3526 57.0744 50.0363 57.6338 49.477C58.1931 48.9176 58.5094 48.1604 58.5142 47.3694V45.8754C58.5144 45.7912 58.498 45.7079 58.466 45.6301C58.4339 45.5524 58.3868 45.4817 58.3273 45.4222C58.2678 45.3627 58.1972 45.3156 58.1194 45.2835C58.0416 45.2515 57.9583 45.2341 57.8742 45.2344ZM57.2342 47.3694C57.2342 48.3654 56.4512 49.1474 55.4542 49.1474H19.5242C19.29 49.1498 19.0576 49.1054 18.8408 49.0169C18.6239 48.9284 18.4269 48.7976 18.2612 48.632C18.0955 48.4664 17.9646 48.2695 17.876 48.0527C17.7874 47.8359 17.7429 47.6036 17.7452 47.3694V46.5154H57.2352L57.2342 47.3694ZM48.8382 31.8584C46.3482 29.4384 43.1452 27.9444 39.8012 27.4464L41.0112 26.2364C41.3672 25.8814 41.5092 25.3124 41.2952 24.8144C41.0822 24.3164 40.6552 24.0314 40.0852 24.0314H34.9632C34.4652 24.0314 33.9672 24.3164 33.7532 24.8144C33.5402 25.3124 33.6832 25.8104 34.0382 26.2374L35.2482 27.4474C31.828 27.9362 28.6447 29.4775 26.1402 31.8574C23.0908 34.7626 21.3027 38.748 21.1602 42.9574C21.1602 43.3134 21.4442 43.5974 21.7292 43.5974C22.0842 43.5974 22.3692 43.3134 22.3692 43.0284C22.501 39.1374 24.163 35.4557 26.9942 32.7834C29.6272 30.2214 33.0422 28.7984 36.5992 28.5854H38.3072C41.9362 28.7984 45.2802 30.2214 47.9132 32.7834C50.7443 35.4557 52.4064 39.1374 52.5382 43.0284C52.5382 43.3844 52.8222 43.6684 53.1782 43.5984C53.5342 43.5984 53.8182 43.3134 53.7482 42.9584C53.6762 38.6884 51.8982 34.7754 48.8382 31.8584ZM38.1652 27.3044H36.8852L34.9632 25.3834H40.0862L38.1652 27.3044Z" stroke="#347928" stroke-width="0.5"/>
</g>
</svg>
