<svg width="80" height="66" viewBox="0 0 80 66" fill="none" xmlns="http://www.w3.org/2000/svg">
<g id="SVG">
<path id="Vector" d="M77.917 40.1602H75C74.583 24.2432 62.5 11.1602 47 9.16016C47.833 8.24316 48.417 6.91016 48.417 5.57716C48.417 2.57716 46 0.160156 43 0.160156C40 0.160156 37.5 2.57716 37.5 5.57716C37.5 6.99316 38 8.24316 38.917 9.16016C23.333 11.1602 11.25 24.2432 10.833 40.1602H7.083C6.417 40.1602 5.833 40.7432 5.833 41.4102C5.833 42.0772 6.417 42.6602 7.083 42.6602H18.583C18.4069 42.847 18.2115 43.0146 18 43.1602C15.083 46.0772 14.167 49.9932 15.75 52.6602H1.25C0.583 52.6602 0 53.2432 0 53.9102C0 54.5772 0.583 55.1602 1.25 55.1602H20.417C22.583 55.1602 25 54.0772 27 52.1602C29.917 49.2432 30.833 45.3272 29.25 42.6602H61.083C60.9069 42.847 60.7115 43.0146 60.5 43.1602C57.583 46.0772 56.667 50.0772 58.25 52.6602H48.75C48.083 52.6602 47.5 53.2432 47.5 53.9102C47.5 54.5772 48.083 55.1602 48.75 55.1602H62.917C65.083 55.1602 67.5 54.0772 69.5 52.1602C72.417 49.2432 73.333 45.2432 71.75 42.6602H77.917C78.583 42.6602 79.167 42.0772 79.167 41.4102C79.167 40.7432 78.583 40.1602 77.917 40.1602ZM42.917 2.66016C44.5 2.66016 45.833 3.99316 45.833 5.57716C45.833 7.16016 44.5 8.49316 42.917 8.49316C41.333 8.49316 40 7.16016 40 5.57716C40 3.99316 41.333 2.66016 42.917 2.66016ZM26.75 43.4102C28.25 44.9102 27.5 48.0772 25.25 50.3272C23 52.5772 19.75 53.3272 18.333 51.8272C16.833 50.3272 17.583 47.1602 19.833 44.9102C21.333 43.4102 23.167 42.6602 24.667 42.6602C25.417 42.6602 26.167 42.9102 26.75 43.4102ZM25 40.1602H13.333C13.75 24.2432 26.833 11.4102 42.917 11.4102C58.917 11.4102 72 24.2432 72.5 40.1602H25ZM69.25 43.4102C70.75 44.9102 70 48.0772 67.75 50.3272C65.5 52.5772 62.25 53.3272 60.833 51.8272C59.333 50.3272 60.083 47.1602 62.333 44.9102C63.833 43.4102 65.667 42.6602 67.167 42.6602C67.917 42.6602 68.667 42.9102 69.25 43.4102Z" fill="#347928"/>
<path id="Vector_2" d="M36.167 17.3272C29.25 19.3272 23.5 24.2432 20.5 30.8272C20.25 31.4932 20.5 32.1602 21.083 32.4932C21.25 32.5772 21.417 32.5772 21.583 32.5772C22.083 32.5772 22.5 32.3272 22.75 31.8272C24.0706 28.9055 26.0162 26.3091 28.4495 24.2212C30.8828 22.1332 33.7446 20.6046 36.833 19.7432C37.5 19.5772 37.917 18.8272 37.667 18.1602C37.583 17.5772 36.833 17.1602 36.167 17.3272ZM52.083 62.6602H18.75C18.083 62.6602 17.5 63.2432 17.5 63.9102C17.5 64.5772 18.083 65.1602 18.75 65.1602H52.083C52.75 65.1602 53.333 64.5772 53.333 63.9102C53.333 63.2432 52.75 62.6602 52.083 62.6602Z" fill="#347928"/>
</g>
</svg>
