<svg width="233" height="313" viewBox="0 0 233 313" fill="none" xmlns="http://www.w3.org/2000/svg">
<path d="M192.218 161.875C177.504 181.792 139.84 224.929 123.777 243.175C119.819 247.67 112.855 247.67 108.898 243.175C92.8343 224.929 55.17 181.792 40.4557 161.875C3.16102 111.395 8.21139 61.6511 46.6823 26.4218C65.9178 8.80718 91.1276 0 116.337 0C141.547 0 166.757 8.80718 185.992 26.4218C224.463 61.6511 229.513 111.395 192.218 161.875Z" fill="#C0EBA6"/>
<circle cx="115.876" cy="100.876" r="76.8764" fill="white"/>
<path d="M97.8263 64.3559H90V132.068C90 136.529 94.8461 139.019 97.2692 139.706V148H134.61V54H97.8263V64.3559Z" fill="#347928"/>
<path d="M134.61 65.1525H140.983V133.661C140.983 137.181 138.13 140.034 134.61 140.034V65.1525Z" fill="#347928"/>
<rect x="93.1865" y="66.7458" width="30.2712" height="23.8983" fill="#C0EBA6"/>
<rect x="93.1865" y="92.2373" width="30.2712" height="23.8983" fill="#C0EBA6"/>
<path d="M93.1865 117.729H123.458V138.441H105.136C98.5363 138.441 93.1865 133.091 93.1865 126.492V117.729Z" fill="#C0EBA6"/>
<rect x="107.525" y="57.1865" width="15.9322" height="7.9661" fill="#C0EBA6"/>
<rect x="134.609" y="66.7458" width="4.77966" height="23.8983" fill="#C0EBA6"/>
<rect x="134.609" y="92.2373" width="4.77966" height="23.8983" fill="#C0EBA6"/>
<path d="M134.609 117.729H139.389V132.068C139.389 134.708 137.249 136.847 134.609 136.847V117.729Z" fill="#C0EBA6"/>
<rect x="107.525" y="143.22" width="15.9322" height="3.18644" fill="#C0EBA6"/>
<rect x="94.7793" y="69.9322" width="25.4915" height="1.59322" fill="#347928"/>
<rect x="94.7793" y="95.4237" width="25.4915" height="1.59322" fill="#347928"/>
<rect x="94.7793" y="120.915" width="25.4915" height="1.59322" fill="#347928"/>
<rect x="125.051" y="54" width="7.9661" height="94" fill="#347928"/>
<path d="M16.2419 301.595H4.10939V268.329H16.4376C21.558 268.329 25.3576 269.878 27.8362 272.976C30.3149 276.075 31.5543 280.005 31.5543 284.767C31.5543 289.92 30.2171 294.013 27.5427 297.046C24.8684 300.079 21.1014 301.595 16.2419 301.595ZM16.4865 273.71H10.4202V296.263H16.144C18.8184 296.263 20.9546 295.382 22.5527 293.621C24.1835 291.86 24.9988 288.909 24.9988 284.767C24.9988 281.309 24.3139 278.602 22.9441 276.646C21.5743 274.689 19.4218 273.71 16.4865 273.71ZM42.1763 294.502C42.1763 295.187 42.4535 295.806 43.008 296.361C43.5624 296.883 44.2962 297.144 45.2094 297.144C46.09 297.144 46.9706 296.948 47.8512 296.557C48.7644 296.165 49.6287 295.578 50.444 294.795V291.175H45.6497C44.5408 291.175 43.6766 291.518 43.0569 292.203C42.4698 292.887 42.1763 293.654 42.1763 294.502ZM45.3073 302.183C42.4046 302.183 40.2521 301.481 38.8497 300.079C37.4473 298.644 36.746 296.785 36.746 294.502C36.746 292.056 37.5777 290.18 39.241 288.876C40.9044 287.571 43.0732 286.919 45.7476 286.919H50.3951C50.3625 285.712 50.0037 284.783 49.3188 284.131C48.6666 283.446 47.7534 283.103 46.5792 283.103C45.4704 283.103 44.2636 283.266 42.9591 283.592C41.6545 283.886 40.5619 284.245 39.6813 284.669L37.9691 279.385C38.8823 278.765 40.2684 278.26 42.1274 277.869C44.019 277.445 45.4704 277.233 46.4814 277.233C49.3188 277.233 51.7486 278.064 53.7707 279.728C55.7928 281.358 56.8038 283.446 56.8038 285.99V301.595H53.5261L51.9606 299.59C51.08 300.275 50.0363 300.878 48.8296 301.4C47.6555 301.922 46.4814 302.183 45.3073 302.183ZM65.8359 267.351C66.8469 267.351 67.6949 267.693 68.3798 268.378C69.0973 269.063 69.4561 269.911 69.4561 270.922C69.4561 271.933 69.0973 272.781 68.3798 273.466C67.6949 274.151 66.8469 274.493 65.8359 274.493C64.8575 274.493 64.0258 274.151 63.3409 273.466C62.656 272.781 62.3136 271.933 62.3136 270.922C62.3136 269.911 62.656 269.063 63.3409 268.378C64.0258 267.693 64.8575 267.351 65.8359 267.351ZM69.0158 277.869V301.595H62.656V277.869H69.0158ZM81.8263 267.057V301.595H75.5155V267.595L81.8263 267.057ZM92.7663 302.721L93.8915 299.932L85.4281 278.749L91.9836 277.869L97.4628 292.251L102.648 277.869H109.351L98.7347 304.726C97.9846 306.651 96.6637 308.298 94.7721 309.667C92.8805 311.037 90.891 311.967 88.8037 312.456L86.5533 307.221C87.6948 306.732 88.9016 306.129 90.1735 305.411C91.4781 304.726 92.3424 303.83 92.7663 302.721ZM137.399 301.595H125.266V268.329H137.594C142.715 268.329 146.514 269.878 148.993 272.976C151.472 276.075 152.711 280.005 152.711 284.767C152.711 289.92 151.374 294.013 148.699 297.046C146.025 300.079 142.258 301.595 137.399 301.595ZM137.643 273.71H131.577V296.263H137.301C139.975 296.263 142.111 295.382 143.71 293.621C145.34 291.86 146.156 288.909 146.156 284.767C146.156 281.309 145.471 278.602 144.101 276.646C142.731 274.689 140.579 273.71 137.643 273.71ZM169.546 302.183C165.795 302.183 162.86 301.057 160.74 298.807C158.653 296.524 157.609 293.475 157.609 289.659C157.609 285.875 158.702 282.859 160.887 280.608C163.105 278.358 166.122 277.233 169.937 277.233C173.884 277.233 176.933 278.407 179.086 280.755C181.271 283.071 182.363 286.12 182.363 289.903C182.363 293.687 181.189 296.687 178.841 298.905C176.493 301.09 173.395 302.183 169.546 302.183ZM175.808 289.903C175.808 287.653 175.303 285.892 174.291 284.62C173.313 283.315 171.911 282.663 170.084 282.663C168.225 282.663 166.774 283.234 165.73 284.375C164.687 285.517 164.165 287.262 164.165 289.61C164.165 291.958 164.605 293.735 165.486 294.942C166.399 296.149 167.785 296.752 169.644 296.752C171.47 296.752 172.954 296.214 174.096 295.138C175.237 294.029 175.808 292.284 175.808 289.903ZM201.386 284.277C200.245 283.755 199.185 283.364 198.206 283.103C197.228 282.81 196.184 282.663 195.075 282.663C194.26 282.663 193.624 282.826 193.167 283.152C192.743 283.446 192.531 283.87 192.531 284.424C192.531 284.815 192.792 285.19 193.314 285.549C193.869 285.908 194.749 286.299 195.956 286.723C197.945 287.441 199.788 288.452 201.484 289.756C203.18 291.028 204.028 292.692 204.028 294.746C204.028 297.095 203.18 298.921 201.484 300.226C199.821 301.53 197.375 302.183 194.146 302.183C193.135 302.183 191.781 301.987 190.085 301.595C188.422 301.204 187.036 300.584 185.927 299.736L187.835 295.138C188.977 295.66 190.069 296.067 191.113 296.361C192.189 296.622 193.167 296.752 194.048 296.752C195.222 296.752 196.119 296.589 196.739 296.263C197.358 295.937 197.668 295.513 197.668 294.991C197.668 294.339 197.358 293.752 196.739 293.23C196.119 292.708 195.141 292.235 193.803 291.811C191.912 291.192 190.118 290.311 188.422 289.169C186.759 287.995 185.927 286.43 185.927 284.473C185.927 282.223 186.759 280.461 188.422 279.189C190.085 277.885 192.336 277.233 195.173 277.233C196.184 277.233 197.489 277.445 199.087 277.869C200.685 278.293 202.087 278.912 203.294 279.728L201.386 284.277ZM220.839 302.183C216.73 302.183 213.485 301.057 211.104 298.807C208.756 296.557 207.582 293.54 207.582 289.756C207.582 285.973 208.642 282.94 210.762 280.657C212.914 278.374 215.833 277.233 219.518 277.233C223.237 277.233 225.96 278.472 227.688 280.951C229.45 283.397 230.33 286.299 230.33 289.659V291.616H214.333C214.626 293.181 215.344 294.437 216.485 295.382C217.627 296.296 219.127 296.752 220.986 296.752C222.062 296.752 223.025 296.622 223.872 296.361C224.753 296.067 225.764 295.66 226.906 295.138L228.765 299.736C227.656 300.584 226.302 301.204 224.704 301.595C223.139 301.987 221.85 302.183 220.839 302.183ZM224.313 287.359C223.987 285.761 223.4 284.587 222.552 283.837C221.704 283.054 220.644 282.663 219.372 282.663C218.067 282.663 216.975 283.071 216.094 283.886C215.213 284.669 214.643 285.826 214.382 287.359H224.313Z" fill="black"/>
</svg>
